<svg width="399" height="399" viewBox="0 0 399 399" fill="none" xmlns="http://www.w3.org/2000/svg">
<path d="M369.658 28.812C408.068 67.212 408.068 129.702 369.658 168.112L286.928 250.852C280.798 256.972 273.928 262.222 266.498 266.512C262.218 273.942 256.968 280.802 250.858 286.922L168.118 369.652C148.908 388.862 123.678 398.462 98.458 398.462C73.228 398.462 48.008 388.862 28.808 369.662C-9.60201 331.252 -9.60201 268.762 28.808 230.352L111.548 147.612C117.668 141.492 124.528 136.242 131.958 131.962C136.238 124.532 141.488 117.662 147.618 111.542L230.358 28.802C248.928 10.232 273.668 0.00195312 299.998 0.00195312C300.008 0.00195312 300.008 0.00195312 300.008 0.00195312C326.348 0.00195312 351.087 10.233 369.658 28.812ZM359.057 157.503C391.607 124.943 391.607 71.973 359.057 39.413C343.307 23.673 322.337 15.003 300.007 15.003H299.997C277.667 15.003 256.707 23.663 240.957 39.413L159.037 121.333C174.917 117.693 191.617 117.983 207.507 122.363L265.707 64.163C274.857 55.013 287.037 49.973 299.997 49.973C300.007 49.973 300.007 49.973 300.007 49.973C312.977 49.973 325.157 55.013 334.307 64.163C343.457 73.313 348.497 85.493 348.497 98.463C348.497 111.423 343.457 123.603 334.307 132.753L251.567 215.493C243.847 223.213 233.617 228.143 222.767 229.373C220.897 229.583 219.027 229.693 217.177 229.693C204.367 229.693 192.147 224.673 182.967 215.503C174.947 207.473 170.107 197.103 169.027 186.043C164.737 187.703 160.847 190.233 157.507 193.573L139.497 211.583C143.667 222.353 149.957 231.983 158.227 240.253C167.577 249.603 178.657 256.423 191.157 260.503C213.087 267.693 237.237 265.483 257.407 254.433C264.317 250.653 270.677 245.873 276.317 240.243L359.057 157.503ZM333.497 98.463C333.497 89.503 330.017 81.093 323.697 74.773C317.377 68.453 308.967 64.973 300.007 64.973H299.997C291.037 64.973 282.627 68.453 276.317 74.763L223.017 128.063C233.327 132.873 242.667 139.413 250.857 147.613C259.057 155.813 265.607 165.143 270.407 175.443L323.697 122.153C330.017 115.832 333.497 107.423 333.497 98.463ZM240.958 204.883L258.978 186.873C254.808 176.113 248.528 166.493 240.258 158.223C230.908 148.873 219.818 142.053 207.308 137.963C185.368 130.783 161.228 132.993 141.058 144.033C134.138 147.813 127.788 152.583 122.158 158.223L39.418 240.953C6.85799 273.513 6.85799 326.493 39.418 359.053C71.968 391.613 124.948 391.613 157.508 359.053L239.428 277.133C232.148 278.803 224.708 279.653 217.238 279.653C208.418 279.653 199.578 278.463 190.968 276.093L132.758 334.303C128.178 338.883 122.848 342.423 117.038 344.833C111.228 347.233 104.938 348.493 98.458 348.493C85.488 348.493 73.308 343.453 64.158 334.313C45.248 315.393 45.248 284.623 64.158 265.703L146.898 182.963C154.618 175.243 164.848 170.323 175.698 169.093C190.488 167.413 205.008 172.463 215.508 182.963C223.538 190.993 228.368 201.363 229.448 212.413C233.727 210.762 237.628 208.223 240.958 204.883ZM214.577 214.572C213.967 206.692 210.597 199.272 204.897 193.572C199.197 187.872 191.777 184.512 183.897 183.892C184.517 191.772 187.877 199.192 193.577 204.892C199.277 210.592 206.697 213.962 214.577 214.572ZM122.158 323.693L175.448 270.403C165.148 265.603 155.818 259.053 147.618 250.853C139.418 242.663 132.878 233.323 128.068 223.013L74.768 276.313C61.708 289.373 61.708 310.633 74.768 323.703C77.918 326.863 81.608 329.303 85.618 330.963C89.638 332.623 93.978 333.493 98.458 333.493C107.418 333.492 115.838 330.013 122.158 323.693Z" fill="#191E2B"/>
<path d="M359.057 39.412C391.607 71.972 391.607 124.942 359.057 157.502L276.317 240.242C270.677 245.872 264.317 250.652 257.407 254.432C237.237 265.482 213.087 267.692 191.157 260.502C178.657 256.422 167.577 249.602 158.227 240.252C149.957 231.982 143.667 222.352 139.497 211.582L157.507 193.572C160.847 190.232 164.737 187.702 169.027 186.042C170.107 197.102 174.947 207.472 182.967 215.502C192.147 224.672 204.367 229.692 217.177 229.692C219.027 229.692 220.897 229.582 222.767 229.372C233.617 228.142 243.847 223.212 251.567 215.492L334.307 132.752C343.457 123.602 348.497 111.422 348.497 98.462C348.497 85.492 343.457 73.312 334.307 64.162C325.157 55.012 312.977 49.972 300.007 49.972C300.007 49.972 300.007 49.972 299.997 49.972C287.037 49.972 274.857 55.012 265.707 64.162L207.507 122.362C191.617 117.982 174.917 117.692 159.037 121.332L240.957 39.412C256.707 23.662 277.667 15.002 299.997 15.002H300.007C322.337 15.002 343.307 23.673 359.057 39.412Z" fill="#75A8FF"/>
<path d="M258.978 186.872L240.958 204.882C237.628 208.222 233.728 210.762 229.448 212.412C228.368 201.362 223.538 190.992 215.508 182.962C205.008 172.462 190.488 167.412 175.698 169.092C164.848 170.322 154.618 175.242 146.898 182.962L64.158 265.702C45.248 284.622 45.248 315.392 64.158 334.312C73.308 343.452 85.488 348.492 98.458 348.492C104.938 348.492 111.228 347.232 117.038 344.832C122.848 342.422 128.178 338.882 132.758 334.302L190.968 276.092C199.578 278.462 208.418 279.652 217.238 279.652C224.708 279.652 232.148 278.802 239.428 277.132L157.508 359.052C124.948 391.612 71.968 391.612 39.418 359.052C6.85799 326.492 6.85799 273.512 39.418 240.952L122.158 158.222C127.788 152.582 134.138 147.812 141.058 144.032C161.228 132.992 185.368 130.782 207.308 137.962C219.818 142.052 230.908 148.872 240.258 158.222C248.527 166.492 254.807 176.113 258.978 186.872Z" fill="#FFD500"/>
</svg>
