<svg width="164" height="99" viewBox="0 0 164 99" fill="none" xmlns="http://www.w3.org/2000/svg">
<path d="M89.9 77.7988C86.6574 77.7988 83.948 77.2228 81.772 76.0708C79.596 74.9188 77.9534 73.1481 76.844 70.7588C75.7347 68.3268 75.116 65.1908 74.988 61.3508L84.78 59.8788C84.8227 62.0974 85.0147 63.8894 85.356 65.2548C85.74 66.6201 86.252 67.6014 86.892 68.1988C87.5747 68.7961 88.3854 69.0948 89.324 69.0948C90.5187 69.0948 91.2867 68.6894 91.628 67.8788C92.012 67.0681 92.204 66.2148 92.204 65.3188C92.204 63.1854 91.692 61.3934 90.668 59.9428C89.644 58.4494 88.2574 56.9561 86.508 55.4628L82.028 51.5588C80.0654 49.8948 78.4014 48.0174 77.036 45.9268C75.7134 43.7934 75.052 41.1694 75.052 38.0548C75.052 33.6601 76.3534 30.3108 78.956 28.0068C81.5587 25.6601 85.1 24.4868 89.58 24.4868C92.3534 24.4868 94.572 24.9561 96.236 25.8948C97.9427 26.8334 99.2227 28.0708 100.076 29.6068C100.972 31.1001 101.569 32.7001 101.868 34.4068C102.209 36.0708 102.401 37.6708 102.444 39.2068L92.588 40.4228C92.5454 38.8868 92.4387 37.5641 92.268 36.4548C92.14 35.3028 91.8414 34.4281 91.372 33.8308C90.9027 33.1908 90.1774 32.8708 89.196 32.8708C88.1294 32.8708 87.34 33.3188 86.828 34.2148C86.3587 35.1108 86.124 36.0068 86.124 36.9028C86.124 38.8228 86.572 40.4014 87.468 41.6388C88.4067 42.8334 89.6227 44.0921 91.116 45.4148L95.404 49.1908C97.6654 51.1108 99.564 53.2868 101.1 55.7188C102.679 58.1508 103.468 61.1588 103.468 64.7428C103.468 67.1748 102.913 69.3934 101.804 71.3988C100.695 73.3614 99.116 74.9188 97.068 76.0708C95.0627 77.2228 92.6734 77.7988 89.9 77.7988Z" fill="#FED703"/>
<path d="M113.21 77.0308L129.082 25.1908H134.714L118.778 77.0308H113.21ZM140.914 70.6308V61.6068L153.33 52.6468L140.914 43.8148V34.7908L160.754 48.6788V56.7428L140.914 70.6308Z" fill="#FF5F57"/>
<path d="M113.21 77.0308L111.298 76.4452L110.506 79.0308H113.21V77.0308ZM129.082 25.1908V23.1908H127.603L127.17 24.6052L129.082 25.1908ZM134.714 25.1908L136.626 25.7784L137.422 23.1908H134.714V25.1908ZM118.778 77.0308V79.0308H120.256L120.69 77.6184L118.778 77.0308ZM115.123 77.6163L130.995 25.7763L127.17 24.6052L111.298 76.4452L115.123 77.6163ZM129.082 27.1908H134.714V23.1908H129.082V27.1908ZM132.803 24.6031L116.867 76.4431L120.69 77.6184L136.626 25.7784L132.803 24.6031ZM118.778 75.0308H113.21V79.0308H118.778V75.0308ZM140.914 70.6308H138.914V74.4721L142.061 72.2692L140.914 70.6308ZM140.914 61.6068L139.744 59.985L138.914 60.5837V61.6068H140.914ZM153.33 52.6468L154.501 54.2686L156.764 52.6351L154.49 51.017L153.33 52.6468ZM140.914 43.8148H138.914V44.8465L139.755 45.4445L140.914 43.8148ZM140.914 34.7908L142.061 33.1523L138.914 30.9494V34.7908H140.914ZM160.754 48.6788H162.754V47.6375L161.901 47.0403L160.754 48.6788ZM160.754 56.7428L161.901 58.3812L162.754 57.7841V56.7428H160.754ZM142.914 70.6308V61.6068H138.914V70.6308H142.914ZM142.085 63.2286L154.501 54.2686L152.16 51.025L139.744 59.985L142.085 63.2286ZM154.49 51.017L142.074 42.185L139.755 45.4445L152.171 54.2765L154.49 51.017ZM142.914 43.8148V34.7908H138.914V43.8148H142.914ZM139.767 36.4292L159.607 50.3172L161.901 47.0403L142.061 33.1523L139.767 36.4292ZM158.754 48.6788V56.7428H162.754V48.6788H158.754ZM159.607 55.1043L139.767 68.9923L142.061 72.2692L161.901 58.3812L159.607 55.1043Z" fill="#FF5F57"/>
<path d="M21.824 69.6L20.6771 71.2385L23.824 73.4413V69.6H21.824ZM1.984 55.712H-0.0159999V56.7533L0.837075 57.3505L1.984 55.712ZM1.984 47.648L0.837075 46.0095L-0.0159999 46.6067V47.648H1.984ZM21.824 33.76H23.824V29.9187L20.6771 32.1215L21.824 33.76ZM21.824 42.784L22.9928 44.4069L23.824 43.8083V42.784H21.824ZM9.472 51.68L8.30317 50.0571L6.04978 51.68L8.30317 53.3029L9.472 51.68ZM21.824 60.576H23.824V59.5517L22.9928 58.9531L21.824 60.576ZM22.9709 67.9615L3.13092 54.0735L0.837075 57.3505L20.6771 71.2385L22.9709 67.9615ZM3.984 55.712V47.648H-0.0159999V55.712H3.984ZM3.13092 49.2865L22.9709 35.3985L20.6771 32.1215L0.837075 46.0095L3.13092 49.2865ZM19.824 33.76V42.784H23.824V33.76H19.824ZM20.6552 41.1611L8.30317 50.0571L10.6408 53.3029L22.9928 44.4069L20.6552 41.1611ZM8.30317 53.3029L20.6552 62.1989L22.9928 58.9531L10.6408 50.0571L8.30317 53.3029ZM19.824 60.576V69.6H23.824V60.576H19.824Z" fill="#FF5F57"/>
<path d="M32.4732 77.0308L42.2652 25.1908H55.3212L64.9852 77.0308H54.4252L52.6972 66.0868H45.0812L43.2892 77.0308H32.4732ZM46.1052 59.2388H51.6092L48.8572 39.0148L46.1052 59.2388Z" fill="#015ABC"/>
</svg>
